<?xml version="1.0" encoding="UTF-8" standalone="no"?>
<svg
   width="512"
   height="512"
   viewBox="0 0 512 512"
   version="1.1"
   id="svg20"
   sodipodi:docname="Microscope_icon_green.svg"
   inkscape:version="1.2.2 (732a01da63, 2022-12-09)"
   xmlns:inkscape="http://www.inkscape.org/namespaces/inkscape"
   xmlns:sodipodi="http://sodipodi.sourceforge.net/DTD/sodipodi-0.dtd"
   xmlns="http://www.w3.org/2000/svg"
   xmlns:svg="http://www.w3.org/2000/svg">
  <defs
     id="defs24" />
  <sodipodi:namedview
     id="namedview22"
     pagecolor="#ffffff"
     bordercolor="#000000"
     borderopacity="0.25"
     inkscape:showpageshadow="2"
     inkscape:pageopacity="0.0"
     inkscape:pagecheckerboard="0"
     inkscape:deskcolor="#d1d1d1"
     showgrid="false"
     inkscape:zoom="0.9326172"
     inkscape:cx="156.54869"
     inkscape:cy="240.72042"
     inkscape:window-width="1920"
     inkscape:window-height="1191"
     inkscape:window-x="-9"
     inkscape:window-y="1304"
     inkscape:window-maximized="1"
     inkscape:current-layer="svg20" />
  <!-- Background Circle -->
  <circle
     cx="263.74292"
     cy="248.26855"
     r="240"
     fill="#333333"
     id="circle2"
     style="fill:#333333;fill-opacity:1;stroke:#32cb32;stroke-width:15;stroke-dasharray:none;stroke-opacity:1" />
  <!-- Microscope Group -->
  <polygon
     class="st0"
     points="236.168,254.854 194.188,223.005 211.144,200.654 198.725,191.232 172.347,226.003 239.166,276.696 265.543,241.932 253.123,232.51 "
     id="polygon1166"
     style="fill:#32cb32;fill-opacity:1"
     transform="matrix(0.73761484,0,0,0.73704271,44.348057,50.247248)" />
  <path
     class="st0"
     d="m 374.46905,247.31257 v -0.11203 c 0,-22.51519 -5.74824,-43.82457 -15.86389,-62.43489 -5.34993,-9.82183 -11.95673,-18.89777 -19.60285,-26.99713 0.0561,-0.45991 0.0561,-0.91983 0.0561,-1.37459 0,-8.32932 -2.76237,-15.96876 -7.41525,-22.17245 l 21.55601,-28.37689 -73.40226,-55.597342 -96.28235,126.822202 73.40228,55.59808 31.73292,-41.87213 c 4.13727,1.66571 8.67804,2.58554 13.38845,2.58554 1.55488,0 3.10388,-0.11203 4.60272,-0.28597 3.85108,4.42005 7.18511,9.3059 9.99762,14.47109 6.43865,11.83544 10.0596,25.27468 10.0596,39.74651 0,23.14904 -9.30723,43.82972 -24.48586,58.99143 -15.17275,15.1617 -35.87024,24.41085 -59.03135,24.46686 -4.54074,0 -9.02618,-0.34199 -13.33755,-1.08787 -13.27558,-2.12637 -25.46246,-7.35347 -35.8702,-14.99366 h -17.64375 c 0.39905,0.4039 0.80327,0.80191 1.20747,1.20654 v 0.056 c 14.02206,13.38322 32.13125,22.57709 52.30648,25.3867 4.36742,0.57783 8.79681,0.91983 13.33755,0.91983 26.265,0 49.94908,-10.62374 67.19376,-27.79831 17.18865,-17.23132 27.81989,-40.89702 27.81989,-67.14754 0,-16.42279 -4.13655,-31.81518 -11.43451,-45.26031 -2.41421,-4.42005 -5.17583,-8.61604 -8.28046,-12.57543 7.70218,-3.79208 13.85462,-10.16898 17.30149,-18.03838 4.82696,5.86097 9.08299,12.12066 12.7032,18.84028 9.25707,16.94535 14.48898,36.41507 14.48898,56.97783 v 0.11792 c 0,33.02689 -13.4504,62.95083 -35.06769,84.54618 -9.25116,9.24988 -20.00116,16.94534 -31.90184,22.80115 l -7.87625,3.91001 28.22482,23.83301 c 6.38258,5.40179 10.0596,13.3272 10.0596,21.71328 v 11.94746 H 182.1345 v -11.94747 c 0,-8.38607 3.67626,-16.31149 10.11565,-21.76929 l 15.52162,-13.15326 6.37594,-5.40178 -9.59857,-3.27027 c -16.6664,-5.68775 -31.72776,-14.87499 -44.14477,-26.76644 -6.03443,-5.74377 -11.4404,-12.17742 -16.14934,-19.12773 h -13.62448 c 6.03443,10.16382 13.39361,19.35695 21.84226,27.45705 11.26631,10.74166 24.54265,19.52574 39.14299,25.72943 l -1.60505,1.37974 -5.23116,4.4193 c -8.97087,7.58344 -14.14081,18.78502 -14.14081,30.50325 v 23.43502 h 167.27038 v -23.43502 c 0,-11.71749 -5.16994,-22.91907 -14.1408,-30.50325 l -15.06063,-12.74935 c 10.0596,-5.74378 19.19864,-12.74937 27.30429,-20.84947 23.73792,-23.66423 38.45703,-56.57318 38.45703,-92.76346 z m -47.47879,-85.40483 c -1.09462,4.82395 -3.50884,9.13196 -6.89892,12.51942 -2.69967,2.64155 -5.92231,4.71191 -9.54326,5.97373 -2.64361,0.97584 -5.51809,1.49251 -8.50987,1.49251 -6.32062,-0.056 -12.01352,-2.29442 -16.43626,-6.02975 -0.57829,-0.45991 -1.09462,-0.91983 -1.61096,-1.43576 -4.59754,-4.6559 -7.41524,-10.97161 -7.41524,-18.03396 0,-7.06676 2.8177,-13.38323 7.41524,-18.03838 4.65953,-4.59399 10.98014,-7.46625 18.04796,-7.46625 5.34919,0 10.23293,1.60971 14.31416,4.42005 1.32476,0.86381 2.58756,1.89568 3.73823,3.0462 1.667,1.66571 3.04855,3.50611 4.19334,5.56983 0.11805,0.17394 0.23015,0.4039 0.2921,0.57784 1.89197,3.56139 2.9866,7.58343 2.9866,11.89144 -9.4e-4,1.88979 -0.23088,3.72944 -0.57312,5.51308 z m -3.62685,-35.72961 c -5.97247,-4.24611 -13.38846,-6.77564 -21.3252,-6.77564 -20.40537,0 -36.95891,16.54146 -36.95891,36.99217 0,11.54357 5.28722,21.88133 13.62374,28.60095 L 254.67745,216.586 199.6654,174.83179 282.03706,66.328779 l 55.0681,41.760111 z"
     id="path1168"
     style="fill:#32cb32;stroke-width:0.737329;fill-opacity:1" />
  <path
     class="st0"
     d="m 188.67346,304.63828 h 34.47759 V 265.86835 H 91.885856 v 38.76993 H 143.85525 Z M 103.38231,277.35517 H 211.65533 V 293.15 H 188.6742 143.85598 103.38305 v -15.79483 z"
     id="path1170"
     style="fill:#32cb32;stroke-width:0.737329;fill-opacity:1" />
  <path
     class="st0"
     d="m 310.03175,143.63941 c -2.30136,-1.43577 -5.05783,-2.23766 -7.99354,-2.23766 -8.27455,0 -14.9994,6.6636 -14.9994,14.99291 0,4.4208 1.89715,8.38608 4.94056,11.08366 2.18849,2.00844 4.88891,3.33216 7.87551,3.73017 0.062,0 0.062,0 0.062,0 0.68525,0.11792 1.43687,0.17394 2.12211,0.17394 8.33579,0 15.00456,-6.71962 15.00456,-14.98777 0,-1.2058 -0.11204,-2.35558 -0.4042,-3.50536 -0.91538,-3.90486 -3.3355,-7.18027 -6.60756,-9.24989 z m -7.99354,18.55505 c -3.21672,0 -5.80502,-2.58555 -5.80502,-5.80053 0,-3.21941 2.5883,-5.80495 5.80502,-5.8617 3.22191,0.056 5.80946,2.64229 5.86626,5.8617 -0.0568,3.21425 -2.64435,5.80053 -5.86626,5.80053 z"
     id="path1172"
     style="fill:#32cb32;stroke-width:0.737329;fill-opacity:1" />
  <rect
     style="fill:#32cb32;stroke:none;stroke-width:5.24053"
     id="rect416"
     width="123.84503"
     height="16.619894"
     x="193.00525"
     y="372.0712" />
  <rect
     style="fill:#32cb32;stroke:none;stroke-width:5.72839"
     id="rect416-0-5"
     width="40.39706"
     height="60.879513"
     x="301.43649"
     y="-36.033871"
     transform="rotate(37.876457)" />
  <rect
     style="fill:#32cb32;stroke:none;stroke-width:4.15242"
     id="rect416-0-5-8"
     width="29.19224"
     height="44.268131"
     x="306.15436"
     y="-135.90956"
     transform="matrix(0.78172986,0.62361721,-0.60427261,0.79677764,0,0)" />
  <rect
     style="fill:#32cb32;stroke:none;stroke-width:3.62872"
     id="rect416-0-64"
     width="34.900135"
     height="28.277079"
     x="317.67264"
     y="177.02167" />
  <rect
     style="fill:#32cb32;stroke:none;stroke-width:2.78072"
     id="rect416-0-64-9"
     width="20.494408"
     height="28.277079"
     x="327.33963"
     y="169.34494" />
  <rect
     style="fill:#32cb32;stroke:none;stroke-width:6.98033"
     id="rect416-0-3"
     width="37.528793"
     height="97.306801"
     x="326.61414"
     y="197.31091" />
  <rect
     style="fill:#32cb32;stroke:none;stroke-width:6.00245"
     id="rect416-0-14"
     width="86.0709"
     height="31.3731"
     x="21.384695"
     y="437.06979"
     transform="matrix(0.74831751,-0.66334072,0.60042565,0.79968058,0,0)" />
  <rect
     style="fill:#32cb32;stroke:none;stroke-width:2.86094"
     id="rect416-0-6"
     width="42.482098"
     height="14.44"
     x="162.11855"
     y="335.67834" />
  <rect
     style="fill:#32cb32;stroke:none;stroke-width:2.86094"
     id="rect416-0-6-8"
     width="42.482098"
     height="14.44"
     x="181.38689"
     y="346.09943" />
  <rect
     style="fill:#32cb32;stroke:none;stroke-width:3.36812"
     id="rect416-0-08"
     width="54.684818"
     height="15.547643"
     x="148.90889"
     y="321.00522" />
  <rect
     style="fill:#32cb32;stroke:none;stroke-width:9.35058"
     id="rect416-0-0"
     width="140.35179"
     height="46.689198"
     x="-27.548777"
     y="261.58972"
     transform="matrix(0.61604625,-0.78770999,0.8100532,0.58635639,0,0)" />
  <rect
     style="fill:#32cb32;stroke:none;stroke-width:2.38216"
     id="rect416-0-2"
     width="57.266922"
     height="7.4266839"
     x="136.46375"
     y="314.7193" />
  <rect
     style="fill:#32cb32;stroke:none;stroke-width:1.67092"
     id="rect416-0-1"
     width="15.011518"
     height="13.939265"
     x="294.63354"
     y="149.69009" />
  <rect
     style="fill:#32cb32;stroke:none;stroke-width:8.55865"
     id="rect416-1"
     width="102.4"
     height="53.612564"
     x="203.45969"
     y="331.59372" />
  <rect
     style="fill:#32cb32;stroke:none;stroke-width:8.62337"
     id="rect416-9"
     width="148.50681"
     height="37.528793"
     x="180.40628"
     y="381.4534" />
  <rect
     style="fill:#32cb32;stroke:none;stroke-width:5.30924"
     id="rect416-2"
     width="112.58639"
     height="18.764397"
     x="100.52356"
     y="275.83664" />
</svg>
